# xmcd
# Copyright (C) 1995-1998 Ti Kan
#
# Track frame offsets:
#       150
#       2728
#       16638
#       28591
#       44455
#       56132
#       71831
#       85195
#       99096
#       112619
#       123003
#       136135
#       148952
#
# Disc length: 2399 seconds
#
# Revision: 0
# Processed by: cddbd v1.5.2PL0 Copyright (c) Steve Scherf et al.
# Submitted via: CD-Transfer v1.0
#
DISCID=9e095d0d
DTITLE=Matschedonia - Gummi Marmelade
DYEAR=09
DGENRE=
TTITLE0=Tro
TTITLE1=Bis Zin Goldenen Dachl
TTITLE2=So A Toaga
TTITLE3=Schilehrer
TTITLE4=Das Lied Bei Dem Ich Am Meisten Sex Hatte
TTITLE5=Los Pannetones
TTITLE6=Baby Ziach Di Aus (Remix)
TTITLE7=Wenn
TTITLE8=Querulant
TTITLE9=Ich Krieg Ein Kind
TTITLE10=I Bin Frei
TTITLE11=Ich  Bin Doch Nicht Blöd Mann
TTITLE12=Werd Schun Bessa Wearn
EXTD=
EXTT0=
EXTT1=
EXTT2=
EXTT3=
EXTT4=
EXTT5=
EXTT6=
EXTT7=
EXTT8=
EXTT9=
EXTT10=
EXTT11=
EXTT12=
PLAYORDER=
